<svg width="1512" height="1554" viewBox="0 0 1512 1554" fill="none" xmlns="http://www.w3.org/2000/svg">
<rect width="1512" height="1554" fill="#210E2C"/>
<path d="M785.201 1243.2L629.801 1398.6L474.401 1243.2L629.801 1087.8V1243.2H785.201Z" fill="white" fill-opacity="0.02"/>
<path d="M1096 1398.6V1554L940.6 1398.6V1243.2L1096 1398.6Z" fill="white" fill-opacity="0.02"/>
<path d="M940.6 1554H629.8L785.2 1398.6L940.6 1554Z" fill="white" fill-opacity="0.02"/>
<path d="M940.6 1243.2L785.2 1398.6V1243.2H940.6Z" fill="white" fill-opacity="0.02"/>
<path d="M1096 932.4V1243.2L940.6 1087.8L1096 932.4Z" fill="white" fill-opacity="0.02"/>
<path d="M629.8 1398.6L474.4 1554L319 1398.6H629.8Z" fill="white" fill-opacity="0.02"/>
<path d="M1096 777L940.6 932.4V777H1096Z" fill="white" fill-opacity="0.02"/>
<path d="M785.2 1087.8V1243.2L629.8 1087.8H785.2Z" fill="white" fill-opacity="0.02"/>
<path d="M319 1398.6V1554H163.6L319 1398.6Z" fill="white" fill-opacity="0.02"/>
<path d="M940.6 1087.8H785.2L629.8 932.4H785.2L940.6 1087.8Z" fill="white" fill-opacity="0.02"/>
<path d="M1096 621.6V777L940.6 621.6H1096Z" fill="white" fill-opacity="0.02"/>
<path d="M474.4 1243.2L319 1398.6V1087.8L474.4 1243.2Z" fill="white" fill-opacity="0.02"/>
<path d="M629.801 932.4L474.401 1087.8V932.4H629.801Z" fill="white" fill-opacity="0.02"/>
<path d="M940.6 777L785.2 932.4V621.6L940.6 777Z" fill="white" fill-opacity="0.02"/>
<path d="M1096 466.2L940.6 621.6V466.2H1096Z" fill="white" fill-opacity="0.02"/>
<path d="M241.3 1320.9L85.8996 1476.3L8.19958 1398.6V1243.2H163.6L241.3 1320.9Z" fill="white" fill-opacity="0.02"/>
<path d="M319 1243.2H163.6V1087.8L319 1243.2Z" fill="white" fill-opacity="0.02"/>
<path d="M629.801 777V932.4L474.401 777H629.801Z" fill="white" fill-opacity="0.02"/>
<path d="M785.2 466.2V621.6L629.8 777V621.6L785.2 466.2Z" fill="white" fill-opacity="0.02"/>
<path d="M1096 155.4V310.8H940.6L1096 155.4Z" fill="white" fill-opacity="0.02"/>
<path d="M396.684 854.7L318.985 932.399L396.684 1010.1L474.383 932.399L396.684 854.7Z" fill="white" fill-opacity="0.02"/>
<path d="M629.801 621.6L474.401 777V621.6H629.801Z" fill="white" fill-opacity="0.02"/>
<path d="M8.19965 1554H-147.2L-302.6 1398.6H-147.2L8.19965 1554Z" fill="white" fill-opacity="0.02"/>
<path d="M1096 0.00012207V155.4L940.6 0.00012207H1096Z" fill="white" fill-opacity="0.02"/>
<path d="M940.6 155.4V310.8H785.2L940.6 155.4Z" fill="white" fill-opacity="0.02"/>
<path d="M8.20041 1087.8V1243.2H-147.2L8.20041 1087.8Z" fill="white" fill-opacity="0.02"/>
<path d="M940.6 466.2H785.2L629.8 310.8V155.4L940.6 466.2Z" fill="white" fill-opacity="0.02"/>
<path d="M629.801 310.8V466.2L474.401 310.8H629.801Z" fill="white" fill-opacity="0.02"/>
<path d="M8.20041 932.4L-147.2 1087.8V932.4H8.20041Z" fill="white" fill-opacity="0.02"/>
<path d="M8.20041 777L-147.2 932.4V777H8.20041Z" fill="white" fill-opacity="0.02"/>
<path d="M940.6 155.4H629.8L785.2 0.00012207L940.6 155.4Z" fill="white" fill-opacity="0.02"/>
<path d="M629.801 155.4L474.401 310.8V155.4H629.801Z" fill="white" fill-opacity="0.02"/>
<path d="M629.8 0.00012207L474.4 155.4H319L474.4 0.00012207H629.8Z" fill="white" fill-opacity="0.02"/>
<path d="M8.19965 621.6V777L-302.6 466.2H-147.2L8.19965 621.6Z" fill="white" fill-opacity="0.02"/>
<path d="M241.3 388.5L163.6 466.2H8.19958V310.8L85.8996 233.1L241.3 388.5Z" fill="white" fill-opacity="0.02"/>
<path d="M8.20041 466.2H-147.2V310.8L8.20041 466.2Z" fill="white" fill-opacity="0.02"/>
<path d="M474.4 777H163.6L319 621.6L474.4 777Z" fill="white" fill-opacity="0.02"/>
<path d="M319 777V1087.8L163.6 932.4L319 777Z" fill="white" fill-opacity="0.02"/>
<path d="M163.6 932.4L8.19958 1087.8V777L163.6 932.4Z" fill="white" fill-opacity="0.02"/>
<path d="M319 621.6H163.6V466.2L319 621.6Z" fill="white" fill-opacity="0.02"/>
<path d="M163.6 621.6V777L8.19958 621.6H163.6Z" fill="white" fill-opacity="0.02"/>
<path d="M8.19965 0.00012207L-147.2 155.4H-302.6L-147.2 0.00012207H8.19965Z" fill="white" fill-opacity="0.02"/>
<path d="M319 155.4H163.6L8.19958 0.00012207H163.6L319 155.4Z" fill="white" fill-opacity="0.02"/>
<path d="M629.8 466.2L474.4 621.6L319 466.2L474.4 310.8V466.2H629.8Z" fill="white" fill-opacity="0.02"/>
<path d="M474.4 310.8H319V155.4L474.4 310.8Z" fill="white" fill-opacity="0.02"/>
<path d="M8.20041 155.4V310.8L-147.2 155.4H8.20041Z" fill="white" fill-opacity="0.02"/>
<path d="M319 310.8H163.6V155.4L319 310.8Z" fill="white" fill-opacity="0.02"/>
<path d="M1562.2 1554H1406.8L1251.4 1398.6H1406.8L1562.2 1554Z" fill="white" fill-opacity="0.02"/>
<path d="M1251.4 1398.6V1554H1096L1251.4 1398.6Z" fill="white" fill-opacity="0.02"/>
<path d="M1406.8 1243.2V1398.6L1251.4 1243.2H1406.8Z" fill="white" fill-opacity="0.02"/>
<path d="M1251.4 1398.6H1096V1243.2L1251.4 1398.6Z" fill="white" fill-opacity="0.02"/>
<path d="M1562.2 1087.8V1243.2H1406.8L1562.2 1087.8Z" fill="white" fill-opacity="0.02"/>
<path d="M1406.8 1087.8V1243.2L1251.4 1087.8H1406.8Z" fill="white" fill-opacity="0.02"/>
<path d="M1562.2 932.4L1406.8 1087.8V932.4H1562.2Z" fill="white" fill-opacity="0.02"/>
<path d="M1562.2 777L1406.8 932.4V777H1562.2Z" fill="white" fill-opacity="0.02"/>
<path d="M1251.4 932.4V1243.2L1096 1087.8L1251.4 932.4Z" fill="white" fill-opacity="0.02"/>
<path d="M1251.4 932.4H1096V777L1251.4 932.4Z" fill="white" fill-opacity="0.02"/>
<path d="M1406.8 777L1251.4 932.4V777H1096L1251.4 621.6L1406.8 777Z" fill="white" fill-opacity="0.02"/>
<path d="M1562.2 621.6V777L1251.4 466.2H1406.8L1562.2 621.6Z" fill="white" fill-opacity="0.02"/>
<path d="M1562.2 466.2H1406.8V310.8L1562.2 466.2Z" fill="white" fill-opacity="0.02"/>
<path d="M1251.4 310.8V466.2L1096 621.6V466.2L1251.4 310.8Z" fill="white" fill-opacity="0.02"/>
<path d="M1251.4 155.4V310.8H1096L1251.4 155.4Z" fill="white" fill-opacity="0.02"/>
<path d="M1251.4 0V155.4L1096 0H1251.4Z" fill="white" fill-opacity="0.02"/>
<path d="M1562.2 0.00012207L1406.8 155.4H1251.4L1406.8 0.00012207H1562.2Z" fill="white" fill-opacity="0.02"/>
<path d="M1406.8 155.4V310.8H1251.4L1406.8 155.4Z" fill="white" fill-opacity="0.02"/>
<path d="M1562.2 155.4V310.8L1406.8 155.4H1562.2Z" fill="white" fill-opacity="0.02"/>
</svg>
