<svg width="155" height="246" viewBox="0 0 155 246" fill="none" xmlns="http://www.w3.org/2000/svg">
<path d="M58.1155 104.279C38.1585 116.105 31.9672 128.272 31.0344 135.06C30.6485 137.749 30.9219 148.328 48.724 168.433C49.4477 169.243 50.3321 170.182 51.3935 170.053C52.487 161.645 51.3935 144.586 55.0279 128.272C56.8934 119.783 59.8523 127.656 62.152 121.694C63.2481 119.31 63.9696 116.769 64.2908 114.161C64.5481 111.52 62.1841 105.445 58.1155 104.279Z" fill="white"/>
<path d="M51.2971 171.462C50.6052 171.378 49.9387 171.148 49.3403 170.788C48.742 170.428 48.2253 169.946 47.8235 169.372C29.4263 148.684 29.2977 137.733 29.6997 134.865C30.2465 130.961 33.8487 117.045 57.4562 103.096C57.6171 103.001 57.7953 102.938 57.9803 102.913C58.1654 102.888 58.3535 102.901 58.5337 102.95C63.3581 104.295 65.9472 111.05 65.8025 114.21C65.5751 116.602 64.9556 118.939 63.9692 121.127C63.8406 121.484 63.7119 121.824 63.5672 122.18C62.2646 125.68 60.3509 125.696 58.7427 125.42C57.7779 125.339 57.2472 125.242 56.5074 128.579C54.6077 138.55 53.6172 148.674 53.5485 158.826C53.4037 163.378 53.2751 167.299 52.9052 170.166C52.8595 170.47 52.7173 170.751 52.4999 170.967C52.2825 171.184 52.0016 171.323 51.6991 171.365L51.2971 171.462ZM58.3085 105.899C36.277 119.118 32.9482 131.82 32.4496 135.303C32.1923 137.133 31.8385 147.259 49.898 167.542C50.0332 167.712 50.1782 167.874 50.3322 168.028C50.5573 165.468 50.6538 162.309 50.7664 158.777C50.8369 148.444 51.8543 138.14 53.8058 127.996C54.8671 123.136 56.62 122.342 59.0965 122.715C60.0614 122.861 60.3509 122.893 60.9781 121.224L61.3801 120.155C62.2408 118.243 62.7841 116.202 62.9882 114.112C63.1169 111.925 61.171 107.13 58.3085 105.899Z" fill="black"/>
<path d="M94.4274 104.279C114.401 116.138 119.386 127.235 120.318 133.991C120.688 136.664 121.605 148.328 103.722 168.433C102.999 169.243 102.114 170.182 101.069 170.053C99.9272 161.629 100.989 144.569 97.4185 128.256C95.5692 119.766 92.5941 127.64 90.3105 121.678C89.1997 119.299 88.4774 116.756 88.1717 114.145C88.0591 111.52 90.391 105.445 94.4274 104.279Z" fill="white"/>
<path d="M101.294 171.462H100.876C100.574 171.422 100.294 171.283 100.079 171.066C99.864 170.849 99.7258 170.567 99.686 170.263C99.3001 167.315 99.1714 163.394 99.0267 158.923C98.9638 148.739 97.9733 138.582 96.0677 128.58C95.344 125.339 94.7812 125.339 93.8967 125.469C92.2886 125.712 90.3266 125.696 89.0723 122.229C88.9436 121.873 88.7989 121.532 88.6702 121.176C87.6839 118.988 87.0644 116.65 86.837 114.258C86.7083 111.018 89.3617 104.344 94.1058 102.999C94.4751 102.9 94.8682 102.953 95.1993 103.145C115.221 115.004 120.672 126.36 121.701 133.796C122.296 138.089 121.846 150.159 104.752 169.437C104.347 169.998 103.83 170.468 103.235 170.817C102.639 171.166 101.979 171.385 101.294 171.462ZM94.4756 122.602C96.4376 122.602 97.8527 123.736 98.7854 127.964C100.732 138.109 101.744 148.413 101.809 158.745C101.921 162.277 102.018 165.436 102.243 167.995L102.693 167.509C119 149.17 119.482 138.089 118.952 134.185C118.003 127.429 112.953 117.061 94.2827 105.899C91.4202 107.179 89.4582 111.974 89.5547 114.129C89.7665 116.217 90.3094 118.257 91.1629 120.171L91.581 121.241C92.2082 122.861 92.4976 122.861 93.4625 122.731C93.7966 122.663 94.1352 122.62 94.4756 122.602Z" fill="black"/>
<path d="M100.924 39.5576C99.5306 71.0298 98.1261 102.502 96.711 133.974C96.711 133.974 56.7165 134.201 55.9928 133.115C53.3715 101.184 51.4096 71.0514 49.6889 39.0554C55.6069 36.7549 61.6052 32.5752 67.9413 32.5752C71.5254 32.6675 75.0915 33.1179 78.5872 33.9198L89.5869 36.0745C93.5265 36.6176 97.3542 37.7936 100.924 39.5576Z" fill="white"/>
<path d="M88.0913 135.384C84.6982 135.384 80.6617 135.384 76.6253 135.384C55.7195 135.222 55.3978 134.768 54.835 133.942C54.7076 133.735 54.6254 133.503 54.5938 133.261C52.1333 102.999 50.0749 73.0927 48.3059 39.1202C48.2898 38.826 48.3668 38.5341 48.5257 38.2867C48.6846 38.0393 48.9174 37.849 49.1904 37.7432C50.9272 37.079 52.6479 36.2365 54.4651 35.3617C58.7588 33.3043 63.1973 31.1658 67.9413 31.1172C71.6131 31.1971 75.2668 31.6585 78.8445 32.4942L89.8442 34.6165C93.9165 35.2096 97.8655 36.4682 101.535 38.3426C101.762 38.4657 101.949 38.6517 102.075 38.8784C102.2 39.1052 102.258 39.3633 102.243 39.6224L98.1101 134.039C98.0935 134.397 97.9405 134.735 97.6829 134.982C97.4253 135.23 97.083 135.368 96.7271 135.367L88.0913 135.384ZM57.2954 131.998C61.6535 132.532 81.9161 132.646 95.3923 132.581L99.4931 40.3839C96.2501 38.9289 92.8254 37.926 89.3135 37.403L78.3138 35.2483C74.9157 34.4509 71.4455 34.0057 67.9574 33.9199C63.8406 33.9199 59.6755 35.9611 55.6712 37.889C54.1756 38.6018 52.6479 39.347 51.1363 39.9789C52.9213 73.125 54.8993 102.432 57.2954 131.998Z" fill="black"/>
<path d="M100.94 39.0878C83.8695 38.1401 66.7598 38.1401 49.6889 39.0878C56.62 27.4559 64.9823 15.1111 72.2029 3.64116C72.5061 3.16213 72.9206 2.76469 73.4105 2.48319C73.9004 2.20168 74.4509 2.04456 75.0146 2.02542C75.5782 2.00628 76.138 2.12569 76.6456 2.37333C77.1532 2.62097 77.5933 2.98939 77.9279 3.44676C86.4188 15.1759 93.3982 28.1363 100.94 39.0878Z" fill="white"/>
<path d="M100.94 40.4975H100.86C83.8484 39.5393 66.797 39.5393 49.7854 40.4975C49.5315 40.5135 49.278 40.4602 49.0516 40.3434C48.8252 40.2265 48.6343 40.0503 48.4989 39.8333C48.3652 39.6139 48.2944 39.3616 48.2944 39.1042C48.2944 38.8469 48.3652 38.5945 48.4989 38.3752C52.8891 31.0202 57.8743 23.3088 62.7148 15.8565C65.4969 11.5148 68.3755 7.07588 70.9807 2.86375C71.3977 2.17974 71.9765 1.61045 72.6652 1.20674C73.354 0.80302 74.1312 0.577448 74.9276 0.55017C75.724 0.522893 76.5147 0.69476 77.229 1.05042C77.9434 1.40608 78.5592 1.93445 79.0214 2.58834C83.8458 9.21434 88.1717 16.2616 92.3529 23.0658C95.6657 28.4443 98.7854 33.5151 102.002 38.2942C102.144 38.505 102.228 38.7509 102.242 39.0056C102.257 39.2603 102.203 39.5142 102.086 39.7404C101.969 39.9666 101.793 40.1564 101.577 40.2898C101.361 40.4231 101.113 40.4949 100.86 40.4975H100.94ZM73.1678 36.9496C81.0369 36.9496 89.3885 37.1548 98.2226 37.5652C95.4727 33.4179 92.8032 29.0923 90.005 24.6048C85.8399 17.8492 81.5462 10.8506 76.8022 4.30559C76.5992 4.03706 76.336 3.82074 76.0342 3.67433C75.7323 3.52791 75.4003 3.45555 75.0654 3.46317C74.7394 3.48266 74.423 3.58123 74.1429 3.75047C73.8629 3.91972 73.6277 4.15463 73.4572 4.4352C70.7877 8.66352 67.9091 13.1025 65.1271 17.3956C60.8012 24.054 56.3466 30.923 52.2619 37.549C58.7427 37.1278 65.7381 36.9496 73.1678 36.9496Z" fill="black"/>
<path d="M75.3066 82.1325C83.0246 82.1325 89.2813 75.8295 89.2813 68.0543C89.2813 60.2791 83.0246 53.9761 75.3066 53.9761C67.5886 53.9761 61.3318 60.2791 61.3318 68.0543C61.3318 75.8295 67.5886 82.1325 75.3066 82.1325Z" fill="#E72A7A"/>
<path d="M75.3066 83.5417C72.2659 83.5417 69.2935 82.6334 66.7653 80.9316C64.2371 79.2298 62.2666 76.811 61.103 73.981C59.9394 71.151 59.6349 68.0369 60.2282 65.0326C60.8214 62.0283 62.2856 59.2686 64.4356 57.1026C66.5857 54.9367 69.3251 53.4616 72.3073 52.864C75.2895 52.2664 78.3807 52.5731 81.1899 53.7453C83.9991 54.9176 86.4001 56.9027 88.0894 59.4496C89.7787 61.9965 90.6804 64.9909 90.6804 68.0541C90.6804 72.1617 89.0607 76.101 86.1775 79.0055C83.2944 81.91 79.384 83.5417 75.3066 83.5417ZM75.3066 55.3853C72.8155 55.3853 70.3804 56.1297 68.3093 57.5242C66.2383 58.9188 64.6244 60.9009 63.6718 63.2197C62.7192 65.5385 62.4708 68.0899 62.958 70.551C63.4451 73.0121 64.646 75.2723 66.4086 77.0456C68.1712 78.819 70.4163 80.0259 72.8599 80.5135C75.3035 81.0011 77.8358 80.7476 80.1364 79.785C82.4369 78.8224 84.4024 77.1941 85.784 75.1059C87.1657 73.0177 87.9015 70.5636 87.8983 68.0541C87.8941 64.6926 86.5655 61.4703 84.2046 59.0949C81.8437 56.7195 78.6433 55.3853 75.3066 55.3853Z" fill="black"/>
<path d="M50.2196 211.088C49.0033 211.129 47.7917 210.916 46.6602 210.465C45.5287 210.013 44.5015 209.332 43.6423 208.464C43.513 208.335 43.4103 208.181 43.3403 208.011C43.2703 207.841 43.2342 207.659 43.2342 207.476C43.2342 207.292 43.2703 207.11 43.3403 206.941C43.4103 206.771 43.513 206.617 43.6423 206.488C43.9047 206.223 44.2604 206.075 44.6313 206.075C45.0022 206.075 45.358 206.223 45.6203 206.488C48.2094 209.177 52.873 208.545 55.7194 206.488C58.9357 204.041 60.8333 200.007 62.152 196.265C66.957 183.348 68.756 169.492 67.4106 155.764C67.3744 155.394 67.4853 155.025 67.719 154.738C67.9528 154.451 68.2902 154.269 68.6569 154.233C69.0237 154.196 69.3899 154.308 69.6749 154.544C69.9599 154.779 70.1404 155.119 70.1766 155.488C71.5624 169.639 69.7084 183.921 64.7572 197.237C63.2456 201.303 61.171 205.856 57.3115 208.723C55.2466 210.23 52.7693 211.056 50.2196 211.088Z" fill="#E72A7A"/>
<path d="M81.9482 206.601C81.7652 206.601 81.5841 206.564 81.4152 206.493C81.2463 206.422 81.0932 206.318 80.9645 206.187C80.8359 206.056 80.7344 205.9 80.6658 205.729C80.5973 205.558 80.5631 205.375 80.5652 205.191C80.5652 192.231 80.8547 179.044 81.2406 166.099C81.2196 165.903 81.2399 165.704 81.3002 165.516C81.3605 165.327 81.4595 165.154 81.5907 165.007C81.7219 164.86 81.8824 164.742 82.0618 164.661C82.2411 164.581 82.4353 164.539 82.6316 164.539C82.828 164.539 83.0222 164.581 83.2015 164.661C83.3809 164.742 83.5414 164.86 83.6726 165.007C83.8038 165.154 83.9028 165.327 83.9631 165.516C84.0234 165.704 84.0437 165.903 84.0227 166.099C83.6367 179.06 83.4116 192.15 83.3473 205.126C83.3583 205.317 83.3302 205.509 83.2647 205.688C83.1991 205.868 83.0975 206.032 82.9663 206.17C82.835 206.309 82.6769 206.418 82.5017 206.492C82.3265 206.566 82.1381 206.603 81.9482 206.601Z" fill="#E72A7A"/>
<path d="M108.386 210.587C108.065 210.591 107.752 210.482 107.502 210.279C102.981 206.334 99.6069 201.228 97.7402 195.504C95.9261 189.982 94.618 184.304 93.8324 178.542C93.8017 178.361 93.8068 178.176 93.8472 177.997C93.8876 177.818 93.9626 177.649 94.0679 177.499C94.1731 177.35 94.3066 177.222 94.4608 177.125C94.6149 177.027 94.7866 176.961 94.9661 176.93C95.1456 176.899 95.3294 176.904 95.507 176.945C95.6845 176.986 95.8524 177.061 96.001 177.167C96.1495 177.273 96.2759 177.408 96.3729 177.563C96.4699 177.718 96.5356 177.891 96.5662 178.072C97.3426 183.671 98.6072 189.189 100.345 194.564C102.052 199.804 105.129 204.483 109.254 208.108C109.478 208.289 109.639 208.535 109.718 208.812C109.796 209.09 109.787 209.385 109.692 209.657C109.596 209.929 109.419 210.165 109.186 210.331C108.952 210.498 108.672 210.587 108.386 210.587Z" fill="#E72A7A"/>
<path d="M30.4555 245.596C21.7072 245.596 14.4706 243.522 8.87428 239.407C3.27795 235.292 -1.14444 228.067 0.592354 220.598C1.26153 217.9 2.67294 215.447 4.66431 213.521C6.65567 211.596 9.14614 210.275 11.8493 209.711C14.3641 209.25 16.9553 209.468 19.3594 210.343C17.3734 206.03 16.7611 201.202 17.6065 196.524C18.4169 192.669 20.3108 189.13 23.0623 186.33C25.8139 183.529 29.307 181.585 33.125 180.729C36.9918 180.017 40.9829 180.541 44.5387 182.229C48.0946 183.917 51.037 186.684 52.9534 190.141C53.084 190.465 53.0907 190.826 52.9722 191.154C52.8537 191.482 52.6184 191.754 52.312 191.918C52.0056 192.081 51.6498 192.124 51.3138 192.038C50.9777 191.953 50.6852 191.744 50.493 191.453C48.8253 188.541 46.3044 186.219 43.2756 184.807C40.2469 183.395 36.8586 182.96 33.5753 183.564C30.2959 184.305 27.2972 185.98 24.9364 188.39C22.5756 190.8 20.9523 193.843 20.2599 197.156C19.7677 200 19.868 202.916 20.5546 205.719C21.2412 208.522 22.499 211.151 24.2481 213.438C24.9801 214.099 25.6331 214.844 26.194 215.657C26.4058 215.941 26.5019 216.296 26.4625 216.649C26.4231 217.002 26.2513 217.327 25.9822 217.557C25.7131 217.786 25.367 217.904 25.0148 217.885C24.6625 217.866 24.3307 217.712 24.0873 217.455C23.4101 216.795 22.7813 216.085 22.2058 215.333C20.8672 214.151 19.282 213.287 17.5674 212.804C15.8528 212.322 14.0526 212.234 12.2996 212.547C10.1344 213.011 8.14229 214.079 6.55012 215.629C4.95795 217.178 3.82976 219.147 3.29403 221.311C1.83062 227.5 5.88314 233.753 10.5146 237.123C16.9471 241.837 25.9045 243.603 37.1132 242.372C41.5035 241.886 45.9419 241.011 50.2357 240.168C55.292 239.083 60.4025 238.272 65.5452 237.738C76.384 236.831 87.2711 238.435 97.7884 239.99C105.152 241.223 112.576 242.051 120.029 242.469C120.211 242.473 120.391 242.514 120.557 242.589C120.724 242.664 120.874 242.772 120.998 242.906C121.122 243.041 121.219 243.199 121.282 243.371C121.344 243.544 121.372 243.727 121.364 243.911C121.362 244.095 121.323 244.277 121.249 244.446C121.175 244.615 121.068 244.766 120.934 244.892C120.8 245.018 120.643 245.115 120.47 245.177C120.298 245.24 120.115 245.266 119.932 245.255C112.388 244.854 104.872 244.031 97.4185 242.793C87.046 241.27 76.3197 239.682 65.8186 240.573C60.7722 241.088 55.7578 241.883 50.7985 242.955C46.4405 243.813 41.9537 244.688 37.4509 245.19C35.1279 245.45 32.7928 245.586 30.4555 245.596Z" fill="#E72A7A"/>
<path d="M140.002 235.195C139.66 235.186 139.334 235.05 139.084 234.815C138.835 234.579 138.679 234.26 138.648 233.917C138.616 233.574 138.71 233.231 138.912 232.953C139.114 232.675 139.411 232.481 139.745 232.409C143.21 231.635 146.272 229.605 148.348 226.706C150.455 223.736 151.682 220.225 151.886 216.581C152.039 215.093 151.868 213.589 151.388 212.174C150.522 210.269 149.058 208.704 147.223 207.719C144.207 206.094 140.773 205.431 137.375 205.819C133.977 206.207 130.776 207.626 128.198 209.89C127.933 210.093 127.604 210.194 127.272 210.174C126.939 210.155 126.624 210.016 126.384 209.784C126.144 209.552 125.993 209.24 125.96 208.906C125.927 208.572 126.014 208.238 126.204 207.962C128.581 204.992 130.105 201.423 130.611 197.642C130.831 195.875 130.598 194.08 129.933 192.43C129.269 190.779 128.195 189.327 126.815 188.214C125.071 187.127 123.111 186.442 121.074 186.205C119.658 185.906 118.196 185.906 116.781 186.205C116.199 186.315 115.651 186.561 115.182 186.924C114.712 187.287 114.334 187.757 114.079 188.295C113.949 188.641 113.688 188.92 113.353 189.072C113.018 189.224 112.637 189.236 112.294 189.105C111.951 188.974 111.673 188.711 111.522 188.373C111.371 188.036 111.36 187.652 111.49 187.306C111.896 186.339 112.53 185.485 113.337 184.819C114.144 184.153 115.099 183.694 116.121 183.483C117.903 183.11 119.743 183.11 121.525 183.483C123.981 183.78 126.34 184.633 128.423 185.978C130.2 187.378 131.588 189.214 132.456 191.311C133.323 193.408 133.64 195.694 133.377 197.95C133.151 200.248 132.52 202.487 131.511 204.56C134.232 203.344 137.195 202.778 140.169 202.908C143.143 203.037 146.047 203.858 148.654 205.305C151.07 206.588 152.972 208.671 154.041 211.202C154.657 213.007 154.866 214.927 154.652 216.824C154.414 220.995 153.003 225.013 150.584 228.407C148.092 231.869 144.423 234.285 140.275 235.195H140.002Z" fill="#E72A7A"/>
<path d="M45.8293 155.165C45.7564 155.166 45.6843 155.149 45.6197 155.115C45.5551 155.081 45.4999 155.031 45.4595 154.97C42.4361 150.645 39.5737 146.141 36.9202 141.573C36.8889 141.518 36.8686 141.459 36.8605 141.397C36.8524 141.334 36.8568 141.271 36.8733 141.211C36.8897 141.151 36.918 141.094 36.9565 141.045C36.9949 140.996 37.0427 140.955 37.0971 140.925C37.1496 140.893 37.2077 140.873 37.2681 140.865C37.3286 140.857 37.3899 140.862 37.4486 140.878C37.5072 140.895 37.5619 140.923 37.6093 140.962C37.6567 141.001 37.6958 141.048 37.7243 141.103C40.426 145.639 43.2241 150.126 46.2153 154.501C46.2854 154.604 46.3128 154.732 46.2918 154.855C46.2708 154.979 46.2031 155.09 46.1027 155.165C46.0131 155.188 45.919 155.188 45.8293 155.165Z" fill="black"/>
<path d="M48.9813 148.62C48.9053 148.617 48.831 148.596 48.7641 148.559C48.6972 148.523 48.6395 148.471 48.5954 148.409C44.0996 141.967 40.074 135.204 36.5504 128.175C36.5231 128.121 36.5069 128.061 36.5026 128.001C36.4984 127.94 36.5063 127.88 36.5258 127.822C36.5453 127.765 36.576 127.712 36.6161 127.667C36.6563 127.622 36.705 127.585 36.7594 127.559C36.869 127.506 36.9946 127.496 37.1109 127.532C37.2272 127.568 37.3257 127.647 37.3866 127.753C40.887 134.743 44.8856 141.467 49.3512 147.874C49.4213 147.978 49.4487 148.106 49.4277 148.229C49.4067 148.353 49.3389 148.464 49.2386 148.539C49.1612 148.587 49.0726 148.615 48.9813 148.62Z" fill="black"/>
<path d="M49.3672 138.899C49.2898 138.903 49.2128 138.886 49.1446 138.849C49.0765 138.812 49.0199 138.756 48.9813 138.688C46.1612 134.407 43.5684 129.978 41.2139 125.42C41.1835 125.366 41.1643 125.307 41.1576 125.245C41.1509 125.184 41.1567 125.122 41.1748 125.062C41.1929 125.003 41.2228 124.948 41.2627 124.901C41.3027 124.854 41.3517 124.816 41.4069 124.788C41.5165 124.735 41.6421 124.726 41.7584 124.762C41.8747 124.798 41.9732 124.877 42.0341 124.983C44.3689 129.516 46.9457 133.918 49.7532 138.17C49.8168 138.275 49.8389 138.399 49.815 138.52C49.7911 138.64 49.7231 138.746 49.6245 138.818C49.5506 138.874 49.4597 138.903 49.3672 138.899Z" fill="black"/>
<path d="M50.7342 128.58C50.6511 128.582 50.5691 128.561 50.4978 128.518C50.4266 128.475 50.3691 128.412 50.3322 128.337C48.917 125.55 47.5983 122.667 46.3922 119.783C46.3687 119.725 46.3566 119.664 46.3568 119.602C46.357 119.54 46.3694 119.478 46.3934 119.421C46.4173 119.364 46.4522 119.312 46.4962 119.268C46.5402 119.225 46.5923 119.19 46.6495 119.167C46.765 119.124 46.8926 119.126 47.0063 119.174C47.1199 119.223 47.2109 119.313 47.2606 119.426C48.4506 122.294 49.7532 125.145 51.1523 127.899C51.1799 127.955 51.1964 128.015 51.2008 128.077C51.2053 128.138 51.1975 128.2 51.1781 128.259C51.1587 128.318 51.128 128.372 51.0876 128.419C51.0473 128.465 50.9983 128.504 50.9433 128.531C50.8785 128.564 50.8068 128.581 50.7342 128.58Z" fill="black"/>
<path d="M101.053 125.339C100.974 125.361 100.891 125.361 100.812 125.339C100.709 125.275 100.635 125.174 100.605 125.056C100.575 124.938 100.591 124.813 100.651 124.707L105.475 116.38C105.499 116.317 105.536 116.259 105.583 116.211C105.631 116.163 105.688 116.126 105.752 116.103C105.815 116.08 105.882 116.07 105.949 116.076C106.016 116.081 106.082 116.101 106.14 116.134C106.199 116.167 106.25 116.213 106.29 116.268C106.329 116.323 106.357 116.385 106.37 116.452C106.383 116.518 106.382 116.587 106.366 116.653C106.351 116.719 106.321 116.781 106.279 116.834L101.455 125.161C101.408 125.222 101.346 125.27 101.276 125.301C101.206 125.332 101.129 125.345 101.053 125.339Z" fill="black"/>
<path d="M102.42 135.74H102.243C102.13 135.69 102.042 135.598 101.996 135.482C101.951 135.367 101.953 135.238 102.002 135.125C104.034 130.395 106.404 125.82 109.094 121.435C109.125 121.384 109.166 121.339 109.215 121.304C109.263 121.268 109.318 121.243 109.377 121.229C109.435 121.216 109.496 121.214 109.555 121.224C109.614 121.235 109.67 121.257 109.721 121.289C109.773 121.319 109.819 121.36 109.856 121.408C109.893 121.457 109.919 121.512 109.934 121.571C109.949 121.63 109.952 121.691 109.943 121.751C109.934 121.812 109.913 121.869 109.882 121.921C107.208 126.264 104.859 130.802 102.854 135.497C102.813 135.576 102.75 135.641 102.673 135.684C102.596 135.728 102.508 135.747 102.42 135.74Z" fill="black"/>
<path d="M102.725 149.122C102.662 149.136 102.596 149.136 102.532 149.122C102.477 149.097 102.426 149.062 102.384 149.017C102.343 148.972 102.31 148.92 102.289 148.862C102.268 148.805 102.259 148.743 102.262 148.682C102.265 148.621 102.281 148.561 102.307 148.506C105.668 141.297 109.206 134.039 112.841 126.911C112.866 126.856 112.903 126.807 112.948 126.766C112.993 126.726 113.045 126.695 113.102 126.675C113.159 126.656 113.219 126.648 113.279 126.652C113.339 126.656 113.398 126.673 113.452 126.7C113.507 126.728 113.556 126.766 113.596 126.813C113.636 126.859 113.667 126.914 113.687 126.972C113.706 127.031 113.714 127.093 113.709 127.155C113.705 127.216 113.688 127.277 113.661 127.332C110.042 134.444 106.505 141.702 103.144 148.895C103.102 148.968 103.04 149.028 102.967 149.068C102.893 149.108 102.809 149.127 102.725 149.122Z" fill="black"/>
<path d="M103.996 160.122C103.932 160.137 103.866 160.137 103.803 160.122C103.745 160.1 103.693 160.065 103.65 160.021C103.607 159.977 103.574 159.924 103.552 159.865C103.531 159.807 103.522 159.745 103.527 159.683C103.531 159.621 103.548 159.561 103.578 159.506C107.102 151.601 111.108 143.924 115.574 136.518C115.643 136.416 115.748 136.344 115.867 136.317C115.987 136.29 116.112 136.31 116.218 136.372C116.318 136.439 116.389 136.541 116.416 136.659C116.443 136.776 116.424 136.9 116.362 137.004C111.927 144.369 107.936 151.997 104.414 159.847C104.379 159.929 104.321 159.999 104.246 160.048C104.172 160.097 104.085 160.123 103.996 160.122Z" fill="black"/>
<path d="M32.53 211.753C32.4112 211.748 32.2975 211.703 32.2084 211.623C30.9146 210.334 29.8874 208.798 29.1864 207.106C28.4855 205.414 28.1245 203.599 28.1245 201.765C28.1245 199.932 28.4855 198.116 29.1864 196.424C29.8874 194.732 30.9146 193.197 32.2084 191.907C32.2491 191.862 32.2987 191.826 32.3541 191.801C32.4095 191.776 32.4694 191.764 32.53 191.764C32.5906 191.764 32.6505 191.776 32.7059 191.801C32.7613 191.826 32.8109 191.862 32.8517 191.907C32.8944 191.949 32.9284 192 32.9516 192.056C32.9748 192.111 32.9868 192.171 32.9868 192.231C32.9868 192.292 32.9748 192.351 32.9516 192.407C32.9284 192.463 32.8944 192.513 32.8517 192.555C31.6458 193.76 30.6887 195.194 30.0356 196.773C29.3824 198.352 29.0462 200.046 29.0462 201.757C29.0462 203.468 29.3824 205.162 30.0356 206.741C30.6887 208.321 31.6458 209.754 32.8517 210.959C32.8944 211.001 32.9284 211.052 32.9516 211.107C32.9748 211.163 32.9868 211.223 32.9868 211.283C32.9868 211.343 32.9748 211.403 32.9516 211.459C32.9284 211.514 32.8944 211.565 32.8517 211.607C32.7675 211.696 32.652 211.749 32.53 211.753Z" fill="#E72A7A"/>
<path d="M37.7886 209.144C37.6952 209.147 37.6031 209.121 37.5253 209.068C37.4475 209.016 37.3878 208.941 37.3544 208.853C36.3719 206.207 36.1818 203.328 36.8077 200.574C36.819 200.514 36.8424 200.457 36.8764 200.406C36.9104 200.355 36.9543 200.312 37.0054 200.278C37.0565 200.245 37.1138 200.222 37.1738 200.212C37.2338 200.202 37.2952 200.204 37.3544 200.218C37.4149 200.231 37.472 200.257 37.5227 200.293C37.5733 200.328 37.6163 200.374 37.6492 200.427C37.6821 200.48 37.7043 200.538 37.7144 200.6C37.7246 200.661 37.7225 200.724 37.7082 200.785C37.1285 203.356 37.3073 206.042 38.2228 208.513C38.2646 208.629 38.2593 208.757 38.2081 208.869C38.157 208.981 38.064 209.068 37.9494 209.112C37.9001 209.138 37.8442 209.149 37.7886 209.144Z" fill="#E72A7A"/>
<path d="M16.529 234.822C16.4618 234.824 16.3951 234.81 16.3339 234.782C16.2726 234.754 16.2184 234.712 16.1752 234.66C15.7732 234.19 15.355 233.737 14.9369 233.283C13.8615 232.22 12.9265 231.023 12.1548 229.719C11.3868 228.288 10.9995 226.681 11.0305 225.054C11.0615 223.428 11.5098 221.837 12.3317 220.436C12.3616 220.383 12.4018 220.337 12.4498 220.3C12.4978 220.263 12.5527 220.236 12.6112 220.221C12.6697 220.206 12.7307 220.203 12.7904 220.212C12.8502 220.221 12.9075 220.242 12.9589 220.274C13.012 220.306 13.0582 220.348 13.0951 220.398C13.1319 220.447 13.1586 220.504 13.1736 220.564C13.1885 220.625 13.1915 220.687 13.1822 220.749C13.173 220.81 13.1517 220.869 13.1197 220.922C12.3836 222.185 11.9822 223.617 11.954 225.081C11.9259 226.545 12.2719 227.991 12.9589 229.282C13.7014 230.506 14.5928 231.633 15.6124 232.635C16.0465 233.105 16.4807 233.575 16.8828 234.061C16.9256 234.103 16.9596 234.153 16.9828 234.209C17.006 234.265 17.0179 234.325 17.0179 234.385C17.0179 234.445 17.006 234.505 16.9828 234.561C16.9596 234.616 16.9256 234.667 16.8828 234.709C16.8365 234.754 16.7804 234.788 16.7191 234.807C16.6577 234.827 16.5927 234.832 16.529 234.822Z" fill="#E72A7A"/>
<path d="M138.764 227.402C138.652 227.404 138.543 227.364 138.458 227.289C138.375 227.199 138.328 227.08 138.328 226.957C138.328 226.834 138.375 226.715 138.458 226.625C140.83 224.292 142.621 221.428 143.685 218.265C143.919 217.461 143.969 216.613 143.83 215.787C143.759 215.403 143.614 215.038 143.401 214.713C143.188 214.387 142.913 214.108 142.591 213.891C142.486 213.83 142.408 213.73 142.375 213.612C142.342 213.494 142.356 213.367 142.414 213.259C142.444 213.205 142.485 213.156 142.534 213.118C142.583 213.079 142.639 213.051 142.699 213.034C142.759 213.017 142.821 213.013 142.883 213.021C142.945 213.029 143.004 213.05 143.058 213.081C143.482 213.367 143.843 213.737 144.12 214.169C144.397 214.601 144.582 215.085 144.666 215.592C144.836 216.558 144.786 217.549 144.521 218.492C143.431 221.801 141.573 224.8 139.102 227.24C139.06 227.29 139.008 227.33 138.95 227.358C138.892 227.386 138.828 227.401 138.764 227.402Z" fill="#E72A7A"/>
<path d="M130.739 227.613C130.631 227.576 130.54 227.501 130.482 227.402C130.439 227.36 130.405 227.31 130.382 227.254C130.359 227.198 130.347 227.139 130.347 227.078C130.347 227.018 130.359 226.958 130.382 226.903C130.405 226.847 130.439 226.797 130.482 226.754C131.744 225.582 132.886 224.284 133.891 222.882C134.855 221.522 135.368 219.889 135.355 218.217C135.354 218.093 135.401 217.974 135.484 217.884C135.568 217.794 135.683 217.739 135.805 217.731C135.865 217.726 135.926 217.734 135.983 217.754C136.041 217.774 136.093 217.805 136.138 217.846C136.184 217.887 136.22 217.936 136.245 217.992C136.271 218.047 136.285 218.107 136.287 218.168C136.303 220.038 135.741 221.867 134.679 223.401C133.643 224.861 132.457 226.208 131.141 227.419C131.095 227.481 131.034 227.532 130.964 227.565C130.894 227.599 130.817 227.616 130.739 227.613Z" fill="#E72A7A"/>
<path d="M96.711 126.635L55.8159 126.246C55.4491 126.246 55.0974 126.1 54.838 125.838C54.5786 125.577 54.4329 125.223 54.4329 124.853C54.4329 124.484 54.5786 124.129 54.838 123.868C55.0974 123.607 55.4491 123.46 55.8159 123.46L96.711 123.833C97.0541 123.87 97.3715 124.033 97.6021 124.292C97.8327 124.551 97.9603 124.886 97.9603 125.234C97.9603 125.582 97.8327 125.917 97.6021 126.176C97.3715 126.434 97.0541 126.598 96.711 126.635Z" fill="black"/>
<g opacity="0.13">
<path d="M107.083 112.379C105.958 111.456 104.816 109.965 103.32 109.738C103.165 109.095 102.803 108.521 102.291 108.105C101.78 107.69 101.146 107.456 100.489 107.439C99.8321 107.423 99.1878 107.624 98.656 108.014C98.1243 108.403 97.7345 108.958 97.5472 109.593C96.8718 113.95 96.6466 118.341 96.4054 122.731C96.5501 118.713 96.9843 114.631 96.9682 110.662C96.89 102.223 97.3412 93.787 98.3191 85.4052C99.3001 72.8822 100.426 60.3916 100.86 47.8525C101.021 45.633 101.262 43.4297 101.423 41.2265C101.619 40.395 101.552 39.5224 101.23 38.7316C101.042 38.2145 100.726 37.7543 100.312 37.3943C99.8988 37.0343 99.401 36.7864 98.8659 36.6741C98.5167 34.9816 98.0382 33.3188 97.4346 31.7006C97.1246 30.385 96.5071 29.163 95.6335 28.1365C95.1744 27.7923 94.6123 27.6166 94.0405 27.6385C93.4687 27.6605 92.9215 27.8786 92.4897 28.2569C92.0579 28.6352 91.7674 29.1508 91.6665 29.7182C91.5656 30.2856 91.6602 30.8708 91.9348 31.3766C92.8159 33.5194 93.3899 35.7778 93.6394 38.0836C93.6708 39.8946 93.8159 41.7019 94.0736 43.4945C94.0855 43.613 94.0855 43.7324 94.0736 43.8509C92.6745 57.3784 92.4655 71.003 91.2433 84.5628C90.4773 91.3189 90.064 98.1108 90.005 104.911C90.3588 111.925 89.8442 118.94 89.7799 125.971C89.7799 127.413 89.7799 128.855 89.7799 130.313C89.6796 131.06 89.7795 131.821 90.0693 132.516C90.3826 133.297 90.9711 133.934 91.722 134.305C92.4729 134.676 93.3332 134.754 94.1379 134.525C94.5627 134.407 94.959 134.202 95.302 133.924C95.645 133.645 95.9275 133.298 96.132 132.905C96.4004 133.441 96.8059 133.894 97.3065 134.219C97.8072 134.544 98.3849 134.729 98.98 134.753C99.575 134.778 100.166 134.642 100.691 134.36C101.217 134.078 101.658 133.66 101.97 133.148C103.706 129.697 105.266 126.149 106.971 122.683C107.968 120.787 109.399 118.859 109.576 116.688C109.513 115.826 109.256 114.99 108.824 114.244C108.392 113.497 107.797 112.859 107.083 112.379Z" fill="black"/>
</g>
<g opacity="0.13">
<path d="M131.093 193.916C131.042 192.305 130.629 190.727 129.887 189.299C129.468 188.754 128.874 188.372 128.207 188.218C127.54 188.065 126.84 188.149 126.228 188.457C125.615 188.764 125.128 189.276 124.848 189.905C124.568 190.534 124.513 191.242 124.693 191.907C125.191 194.775 125.336 195.876 123.856 200.169C123.358 202.162 121.701 204.3 122.908 206.326C123.35 207.074 124.066 207.617 124.903 207.838C125.739 208.06 126.628 207.941 127.378 207.508C129.228 206.002 128.504 206.066 129.115 204.997C129.655 203.795 130.122 202.562 130.514 201.303C131.219 198.909 131.416 196.392 131.093 193.916Z" fill="#E72A7A"/>
</g>
<g opacity="0.13">
<path d="M153.092 213.632C152.986 211.74 152.488 209.891 151.629 208.205C151.186 206.975 150.465 205.865 149.522 204.965C148.874 204.463 148.072 204.204 147.255 204.233C146.437 204.261 145.655 204.576 145.043 205.122C144.43 205.668 144.026 206.411 143.898 207.225C143.771 208.039 143.928 208.872 144.344 209.582C145.016 210.855 145.411 212.258 145.502 213.697C145.411 216.179 144.739 218.605 143.54 220.776C142.663 222.382 141.686 223.93 140.613 225.41L140.179 225.944C138.925 227.645 138.683 227.678 138.314 228.698C138.026 229.391 137.978 230.161 138.179 230.885C138.38 231.608 138.817 232.242 139.419 232.684C140.022 233.126 140.755 233.351 141.5 233.321C142.244 233.292 142.958 233.01 143.524 232.522C146.41 230.285 148.766 227.43 150.421 224.163C152.076 220.896 152.988 217.298 153.092 213.632Z" fill="black"/>
</g>
</svg>
